<?xml version="1.0" encoding="UTF-8"?>
<svg version="1.1" xmlns="http://www.w3.org/2000/svg" width="1024" height="1024">
<path d="M0 0 C337.92 0 675.84 0 1024 0 C1024 337.92 1024 675.84 1024 1024 C686.08 1024 348.16 1024 0 1024 C0 686.08 0 348.16 0 0 Z " fill="#060C15" transform="translate(0,0)"/>
<path d="M0 0 C0.78275677 0.27121862 1.56551353 0.54243725 2.3719902 0.82187462 C4.05873348 1.40734441 5.7440279 1.99700225 7.4279747 2.59046745 C11.06547443 3.87202635 14.71022871 5.1323287 18.35474586 6.39376545 C20.26009317 7.05330186 22.16509734 7.71383034 24.06976891 8.37531567 C33.8486943 11.76774236 43.6664943 15.03923338 53.49169922 18.29467773 C55.22298211 18.86935781 56.95422386 19.44416187 58.6854248 20.01908875 C62.17588543 21.17807612 65.66654686 22.33645585 69.15734863 23.49441528 C119.76856027 40.28683006 119.76856027 40.28683006 144.57470703 49.05273438 C154.55455225 52.57693528 164.55973952 56.02040899 174.58544922 59.41186523 C175.55874176 59.74122291 175.55874176 59.74122291 176.55169678 60.07723427 C182.39555439 62.05440587 188.24011076 64.02949144 194.08752441 65.99612427 C197.65529613 67.19627937 201.22197405 68.3996403 204.78857422 69.60327148 C205.87157806 69.96600662 206.95458191 70.32874176 208.07040405 70.70246887 C209.05457306 71.03502182 210.03874207 71.36757477 211.05273438 71.71020508 C211.91565094 72.00027435 212.7785675 72.29034363 213.66763306 72.58920288 C215.62451172 73.32983398 215.62451172 73.32983398 216.62451172 74.32983398 C216.72493118 76.76966971 216.76068619 79.18120767 216.75390625 81.62158203 C216.75653473 82.76848259 216.75653473 82.76848259 216.75921631 83.93855286 C216.76364677 86.48957539 216.76068665 89.04052937 216.75732422 91.59155273 C216.75799837 93.37588006 216.75896932 95.16020729 216.76022339 96.9445343 C216.76170312 100.706684 216.75954234 104.46881007 216.75488281 108.23095703 C216.74927058 112.98822398 216.75251263 117.74543405 216.75830841 122.5026989 C216.79943765 161.82850598 216.79943765 161.82850598 215.62451172 178.32983398 C215.53426727 179.5983168 215.53426727 179.5983168 215.44219971 180.89242554 C214.98894031 187.04491245 214.45234501 193.18789777 213.87451172 199.32983398 C213.78803375 200.25460541 213.70155579 201.17937683 213.61245728 202.13217163 C210.20933833 238.04825417 203.04151128 273.07325241 191.62451172 307.32983398 C191.31433105 308.26698242 191.00415039 309.20413086 190.68457031 310.16967773 C179.43469314 343.72298669 162.56265099 375.18362277 142.62451172 404.32983398 C142.15561523 405.01996582 141.68671875 405.71009766 141.20361328 406.42114258 C128.4485145 425.09997573 113.36856669 441.64923418 97.43701172 457.64233398 C96.96329132 458.11882385 96.48957092 458.59531372 96.00149536 459.08624268 C90.38450581 464.72718294 84.67152746 470.15449144 78.62451172 475.32983398 C77.01682799 476.78428916 75.41211457 478.24204293 73.81201172 479.70483398 C68.56003503 484.43161301 63.16371346 488.94435553 57.62451172 493.32983398 C57.03347656 493.79873047 56.44244141 494.26762695 55.83349609 494.75073242 C35.15439663 511.06799936 13.17822132 525.98185119 -10.25048828 538.07983398 C-10.88647949 538.4155542 -11.5224707 538.75127441 -12.17773438 539.09716797 C-16.08378691 541.04388907 -19.0315852 541.91981816 -23.37548828 541.32983398 C-26.28564453 540.07202148 -26.28564453 540.07202148 -29.43798828 538.20483398 C-30.02741211 537.85573975 -30.61683594 537.50664551 -31.22412109 537.14697266 C-52.70954736 524.20601751 -73.1711129 509.44424917 -92.37548828 493.32983398 C-92.98908203 492.81533691 -93.60267578 492.30083984 -94.23486328 491.77075195 C-105.56012078 482.2392652 -116.45833758 472.34556234 -126.85986328 461.81030273 C-128.96925687 459.73038825 -131.1087557 457.79509934 -133.37548828 455.89233398 C-138.86673997 451.18394914 -143.59833096 445.74250754 -148.37548828 440.32983398 C-149.24044922 439.35272461 -150.10541016 438.37561523 -150.99658203 437.36889648 C-206.56090751 373.59549714 -237.16225501 294.69154135 -246.37548828 211.32983398 C-246.67716285 208.74264195 -246.97963227 206.15555898 -247.28540039 203.56884766 C-249.52153305 182.00796607 -249.56417259 160.29336463 -249.56079102 138.63818359 C-249.56070981 135.89625445 -249.56766974 133.15449262 -249.58129883 130.41259766 C-249.6732772 111.62231781 -249.01743749 93.05238279 -247.37548828 74.32983398 C-240.52093132 71.91618087 -233.66505088 69.50631354 -226.80788422 67.10008526 C-223.6163329 65.980042 -220.42522498 64.85878164 -217.23486328 63.73535156 C-192.45616931 55.0115216 -167.58053809 46.57631747 -142.69596577 38.16002941 C-135.16327666 35.61237427 -127.63205596 33.06044422 -120.10206795 30.50481701 C-107.62648401 26.27090732 -95.14589474 22.05226992 -82.65760994 17.85595989 C-76.32979672 15.72917479 -70.00448661 13.59544344 -63.68432617 11.44604492 C-57.3942347 9.30689698 -51.09798942 7.18663209 -44.797575 5.07804108 C-42.43882793 4.28528861 -40.08215429 3.48633645 -37.72773933 2.68080902 C-34.48167775 1.57135946 -31.22882284 0.48465919 -27.97338867 -0.59692383 C-26.55491638 -1.09053406 -26.55491638 -1.09053406 -25.10778809 -1.59411621 C-15.91898406 -4.59535201 -8.91280829 -3.19063361 0 0 Z " fill="#10355A" transform="translate(528.37548828125,241.670166015625)"/>
<path d="M0 0 C4.38773175 2.19386588 7.09334197 4.44520582 9 9 C10.56523204 17.52181886 4.97992503 25.15155157 0.38671875 31.921875 C-2.67618288 36.32921174 -5.83426761 40.66624446 -9 45 C-11.08615831 47.87295667 -13.1683407 50.74878236 -15.25 53.625 C-15.78036865 54.35654297 -16.3107373 55.08808594 -16.85717773 55.84179688 C-25.9898727 68.47439017 -34.80745566 81.33380223 -43.625 94.1875 C-52.78897127 107.54386745 -62.0877748 120.80073933 -71.59716797 133.91357422 C-74.26188146 137.58873 -76.91029745 141.27133736 -79.5 145 C-82.67039999 149.56381036 -85.92782994 154.06231156 -89.1875 158.5625 C-95.53106228 167.32439175 -101.77893038 176.15088777 -108 185 C-115.169612 195.19835898 -122.39064748 205.35551083 -129.70703125 215.44921875 C-131.92314627 218.50699647 -134.12801365 221.57242409 -136.32421875 224.64453125 C-139.52320756 229.115754 -142.75465027 233.56235491 -146 238 C-146.48210937 238.66612305 -146.96421875 239.33224609 -147.4609375 240.01855469 C-153.16648946 247.85580804 -159.037817 255.6734289 -168 260 C-171.79484079 260.56110486 -173.3884206 260.39679854 -176.625 258.296875 C-178.94897716 256.04934445 -180.98850644 253.78008174 -183 251.25 C-183.77988281 250.27546875 -184.55976563 249.3009375 -185.36328125 248.296875 C-185.78561035 247.76642578 -186.20793945 247.23597656 -186.64306641 246.68945312 C-188.07276501 244.90940376 -189.52390893 243.14875097 -190.98046875 241.390625 C-197.63110574 233.33839476 -203.95414887 225.1029806 -210.10668945 216.6640625 C-213.69484354 211.7470935 -217.38206983 206.94701552 -221.2265625 202.2265625 C-223.85287822 198.92920575 -226.29537349 195.50652399 -228.7578125 192.0859375 C-231.34269279 188.52834965 -233.9798174 185.01283695 -236.625 181.5 C-241.72413048 174.72339552 -246.76324368 167.90434325 -251.78540039 161.07055664 C-255.51364555 156.00254556 -259.27470118 150.96110586 -263.0625 145.9375 C-267.27916725 140.34144426 -271.41058518 134.68964698 -275.5 129 C-279.633525 123.25005047 -283.80696929 117.53533666 -288.0625 111.875 C-288.55000732 111.22635986 -289.03751465 110.57771973 -289.53979492 109.90942383 C-292.07434278 106.54302436 -294.61951043 103.18493856 -297.171875 99.83203125 C-313.47013255 78.37253311 -313.47013255 78.37253311 -313 71 C-307.54497248 67.58043051 -302.91622958 67.54565313 -296.6875 67.625 C-295.78837891 67.61339844 -294.88925781 67.60179687 -293.96289062 67.58984375 C-279.32511895 67.65334818 -270.09725079 75.02382573 -259.51611328 84.25463867 C-255.3393845 87.89093527 -251.06648762 91.36071833 -246.6875 94.75 C-241.978047 98.39888781 -237.47070007 102.18006587 -233.0546875 106.18359375 C-229.51689276 109.31111191 -225.74766347 112.13078428 -222 115 C-219.74446159 116.74294832 -217.49554725 118.49420088 -215.25 120.25 C-214.35583374 120.94911499 -214.35583374 120.94911499 -213.44360352 121.66235352 C-209.29295357 124.92926997 -205.25679354 128.30905362 -201.25 131.75 C-192.21411258 140.32354162 -192.21411258 140.32354162 -181.0625 144.9375 C-171.5590582 143.89628626 -163.13924203 133.46931508 -156.55078125 127.2109375 C-152.1282403 123.01311916 -147.57326372 119.08234158 -142.80859375 115.2734375 C-139.48136114 112.58018384 -136.23996308 109.79707786 -133 107 C-128.9084802 103.46776856 -124.78529064 100.00072268 -120.5625 96.625 C-114.58636801 91.7804433 -109.03975933 86.50389918 -103.4453125 81.23046875 C-100.31881938 78.2864525 -97.13117158 75.4289331 -93.875 72.62890625 C-91.61248819 70.66334911 -89.40309317 68.64326691 -87.1875 66.625 C-83.74621795 63.51471149 -80.23678702 60.53521688 -76.625 57.625 C-72.06898641 53.94168761 -67.75922509 50.06847694 -63.47436523 46.07983398 C-60.30684144 43.14879145 -57.05920397 40.37986806 -53.6875 37.6875 C-47.65542906 32.83561685 -42.07861145 27.53981549 -36.44921875 22.234375 C-33.30473114 19.27346388 -30.10421725 16.39244211 -26.82421875 13.58203125 C-25.45326672 12.39308998 -24.10538904 11.17745927 -22.76953125 9.94921875 C-15.86662328 3.62444378 -9.93249779 -1.79110616 0 0 Z " fill="#D62635" transform="translate(665,366)"/>
<path d="M0 0 C0.78275677 0.27121862 1.56551353 0.54243725 2.3719902 0.82187462 C4.05873348 1.40734441 5.7440279 1.99700225 7.4279747 2.59046745 C11.06547443 3.87202635 14.71022871 5.1323287 18.35474586 6.39376545 C20.26009317 7.05330186 22.16509734 7.71383034 24.06976891 8.37531567 C33.8486943 11.76774236 43.6664943 15.03923338 53.49169922 18.29467773 C55.22298211 18.86935781 56.95422386 19.44416187 58.6854248 20.01908875 C62.17588543 21.17807612 65.66654686 22.33645585 69.15734863 23.49441528 C119.76856027 40.28683006 119.76856027 40.28683006 144.57470703 49.05273438 C154.55455225 52.57693528 164.55973952 56.02040899 174.58544922 59.41186523 C175.55874176 59.74122291 175.55874176 59.74122291 176.55169678 60.07723427 C182.39555439 62.05440587 188.24011076 64.02949144 194.08752441 65.99612427 C197.65529613 67.19627937 201.22197405 68.3996403 204.78857422 69.60327148 C205.87157806 69.96600662 206.95458191 70.32874176 208.07040405 70.70246887 C209.05457306 71.03502182 210.03874207 71.36757477 211.05273438 71.71020508 C211.91565094 72.00027435 212.7785675 72.29034363 213.66763306 72.58920288 C215.62451172 73.32983398 215.62451172 73.32983398 216.62451172 74.32983398 C216.72493118 76.76966971 216.76068619 79.18120767 216.75390625 81.62158203 C216.75653473 82.76848259 216.75653473 82.76848259 216.75921631 83.93855286 C216.76364677 86.48957539 216.76068665 89.04052937 216.75732422 91.59155273 C216.75799837 93.37588006 216.75896932 95.16020729 216.76022339 96.9445343 C216.76170312 100.706684 216.75954234 104.46881007 216.75488281 108.23095703 C216.74927058 112.98822398 216.75251263 117.74543405 216.75830841 122.5026989 C216.79943765 161.82850598 216.79943765 161.82850598 215.62451172 178.32983398 C215.53426727 179.5983168 215.53426727 179.5983168 215.44219971 180.89242554 C214.98894031 187.04491245 214.45234501 193.18789777 213.87451172 199.32983398 C213.78803375 200.25460541 213.70155579 201.17937683 213.61245728 202.13217163 C210.20933833 238.04825417 203.04151128 273.07325241 191.62451172 307.32983398 C191.31433105 308.26698242 191.00415039 309.20413086 190.68457031 310.16967773 C179.43469314 343.72298669 162.56265099 375.18362277 142.62451172 404.32983398 C142.15561523 405.01996582 141.68671875 405.71009766 141.20361328 406.42114258 C128.4485145 425.09997573 113.36856669 441.64923418 97.43701172 457.64233398 C96.96329132 458.11882385 96.48957092 458.59531372 96.00149536 459.08624268 C90.38450581 464.72718294 84.67152746 470.15449144 78.62451172 475.32983398 C77.01682799 476.78428916 75.41211457 478.24204293 73.81201172 479.70483398 C68.56003503 484.43161301 63.16371346 488.94435553 57.62451172 493.32983398 C57.03347656 493.79873047 56.44244141 494.26762695 55.83349609 494.75073242 C35.15439663 511.06799936 13.17822132 525.98185119 -10.25048828 538.07983398 C-10.88647949 538.4155542 -11.5224707 538.75127441 -12.17773438 539.09716797 C-16.08378691 541.04388907 -19.0315852 541.91981816 -23.37548828 541.32983398 C-26.28564453 540.07202148 -26.28564453 540.07202148 -29.43798828 538.20483398 C-30.02741211 537.85573975 -30.61683594 537.50664551 -31.22412109 537.14697266 C-52.70954736 524.20601751 -73.1711129 509.44424917 -92.37548828 493.32983398 C-92.98908203 492.81533691 -93.60267578 492.30083984 -94.23486328 491.77075195 C-105.56012078 482.2392652 -116.45833758 472.34556234 -126.85986328 461.81030273 C-128.96925687 459.73038825 -131.1087557 457.79509934 -133.37548828 455.89233398 C-138.86673997 451.18394914 -143.59833096 445.74250754 -148.37548828 440.32983398 C-149.24044922 439.35272461 -150.10541016 438.37561523 -150.99658203 437.36889648 C-206.56090751 373.59549714 -237.16225501 294.69154135 -246.37548828 211.32983398 C-246.67716285 208.74264195 -246.97963227 206.15555898 -247.28540039 203.56884766 C-249.52153305 182.00796607 -249.56417259 160.29336463 -249.56079102 138.63818359 C-249.56070981 135.89625445 -249.56766974 133.15449262 -249.58129883 130.41259766 C-249.6732772 111.62231781 -249.01743749 93.05238279 -247.37548828 74.32983398 C-240.52093132 71.91618087 -233.66505088 69.50631354 -226.80788422 67.10008526 C-223.6163329 65.980042 -220.42522498 64.85878164 -217.23486328 63.73535156 C-192.45616931 55.0115216 -167.58053809 46.57631747 -142.69596577 38.16002941 C-135.16327666 35.61237427 -127.63205596 33.06044422 -120.10206795 30.50481701 C-107.62648401 26.27090732 -95.14589474 22.05226992 -82.65760994 17.85595989 C-76.32979672 15.72917479 -70.00448661 13.59544344 -63.68432617 11.44604492 C-57.3942347 9.30689698 -51.09798942 7.18663209 -44.797575 5.07804108 C-42.43882793 4.28528861 -40.08215429 3.48633645 -37.72773933 2.68080902 C-34.48167775 1.57135946 -31.22882284 0.48465919 -27.97338867 -0.59692383 C-26.55491638 -1.09053406 -26.55491638 -1.09053406 -25.10778809 -1.59411621 C-15.91898406 -4.59535201 -8.91280829 -3.19063361 0 0 Z M-24.45214844 14.15893555 C-25.63821182 14.56111298 -26.82427521 14.96329041 -28.04627991 15.37765503 C-29.33575686 15.82510268 -30.62517895 16.27270848 -31.91455078 16.72045898 C-33.26436099 17.1816642 -34.61446 17.64202497 -35.96482849 18.10159302 C-38.82741442 19.07764547 -41.68801962 20.05921974 -44.54714966 21.04534912 C-49.02646514 22.59020092 -53.50998005 24.12258199 -57.99438477 25.65258789 C-62.43884755 27.16953114 -66.88310905 28.68703914 -71.32585144 30.20901489 C-81.68058222 33.75625597 -92.04886031 37.25961801 -102.43798828 40.70483398 C-103.79618365 41.15645203 -105.15433784 41.60819391 -106.51245117 42.06005859 C-112.61105399 44.08817485 -118.71166016 46.11022563 -124.81298828 48.13012695 C-148.49931019 55.97314859 -172.14675009 63.90279983 -195.68041992 72.19433594 C-197.32221324 72.77220289 -198.96405806 73.34992355 -200.60595703 73.92749023 C-201.39384109 74.20494583 -202.18172516 74.48240143 -202.9934845 74.76826477 C-210.24095157 77.30816329 -217.5277385 79.72687383 -224.82939148 82.10621643 C-225.67129532 82.382957 -226.51319916 82.65969757 -227.38061523 82.94482422 C-228.12906204 83.1886937 -228.87750885 83.43256317 -229.64863586 83.68382263 C-231.37896264 84.19513392 -231.37896264 84.19513392 -232.37548828 85.32983398 C-233.37283802 91.03087005 -233.52747806 96.80943004 -233.53662109 102.58300781 C-233.541586 103.35554901 -233.5465509 104.12809021 -233.55166626 104.92404175 C-233.566169 107.46165911 -233.57308091 109.99921333 -233.57861328 112.53686523 C-233.58144066 113.42144598 -233.58426804 114.30602673 -233.58718109 115.21741295 C-233.60214862 119.92733424 -233.61138529 124.63722527 -233.61572266 129.34716797 C-233.62005119 133.16237245 -233.63372361 136.9773436 -233.65673828 140.79248047 C-233.8044937 165.80475978 -233.01974372 190.45100386 -230.37548828 215.32983398 C-230.2683551 216.35515228 -230.16122192 217.38047058 -230.05084229 218.43685913 C-229.47777833 223.81065725 -228.81476724 229.16577861 -228.06298828 234.51733398 C-227.95944031 235.27047882 -227.85589233 236.02362366 -227.74920654 236.79959106 C-221.08320199 284.84021419 -203.00002769 330.73947677 -178.37548828 372.32983398 C-177.90256348 373.13888184 -177.42963867 373.94792969 -176.94238281 374.78149414 C-162.02878071 400.25161829 -143.64482607 424.79532936 -122.37548828 445.32983398 C-119.67920949 448.01272066 -116.99837057 450.71039288 -114.32470703 453.41577148 C-108.51631147 459.28254288 -102.68571309 464.99994767 -96.37548828 470.32983398 C-95.38548828 471.19737305 -94.39548828 472.06491211 -93.37548828 472.95874023 C-84.356469 480.84381996 -74.96785144 488.15814251 -65.37548828 495.32983398 C-64.73998047 495.80807617 -64.10447266 496.28631836 -63.44970703 496.77905273 C-54.00158466 503.8800626 -44.28743233 510.52329702 -34.39501953 516.98901367 C-32.57218741 518.19924022 -30.78245551 519.44337421 -29.00048828 520.71264648 C-28.05173828 521.37006836 -27.10298828 522.02749023 -26.12548828 522.70483398 C-25.33658203 523.26944336 -24.54767578 523.83405273 -23.73486328 524.41577148 C-20.31166573 525.74197716 -18.68603546 524.78829782 -15.37548828 523.32983398 C3.64336552 514.27323694 20.93406496 502.07025865 37.62451172 489.32983398 C38.27291016 488.83596191 38.92130859 488.34208984 39.58935547 487.83325195 C46.09692191 482.85455088 52.45026622 477.7062468 58.68701172 472.39233398 C59.19208252 471.96291504 59.69715332 471.53349609 60.2175293 471.09106445 C80.90295471 453.25757882 102.65641096 433.84084614 118.24121094 411.30737305 C119.72522025 409.18586309 121.26356686 407.11273997 122.81591797 405.04077148 C156.97947205 359.19633349 178.84320774 307.07176724 190.62451172 251.32983398 C190.82028809 250.40477051 191.01606445 249.47970703 191.21777344 248.52661133 C196.68840982 222.25322316 198.6842367 195.7747302 200.43992615 169.04537964 C200.57872764 167.00339021 200.72762418 164.96208307 200.88148499 162.9211731 C201.52927467 154.02239981 201.78475452 145.18044089 201.79248047 136.25952148 C201.79570665 134.88046232 201.79907165 133.50140348 201.80256653 132.12234497 C201.808481 129.26702071 201.81041383 126.41172641 201.80981445 123.55639648 C201.80971176 119.90613537 201.82350727 116.25606409 201.84058666 112.60584831 C201.85170485 109.77309282 201.85373393 106.94038387 201.85320473 104.1076088 C201.85494673 102.11069547 201.8657612 100.11379666 201.87675476 98.11691284 C201.87367813 96.9043985 201.8706015 95.69188416 201.86743164 94.44262695 C201.86956917 92.8483638 201.86956917 92.8483638 201.87174988 91.22189331 C201.60217924 88.06860062 201.25715178 86.05219589 199.62451172 83.32983398 C196.90999644 81.78526013 196.90999644 81.78526013 193.53051758 80.78125 C192.90358002 80.56892227 192.27664246 80.35659454 191.63070679 80.13783264 C189.53926829 79.4346153 187.43982222 78.75946504 185.33935547 78.08374023 C183.84801677 77.58808234 182.35726884 77.0906438 180.86708069 76.59153748 C176.90492829 75.26958099 172.93554836 73.97081592 168.96411133 72.67706299 C165.09480899 71.41302141 161.23181665 70.13006594 157.36865234 68.84741211 C152.68016993 67.29182899 147.99114789 65.73799046 143.29925537 64.19271851 C131.76988573 60.39302426 120.27513959 56.49869209 108.79248047 52.56030273 C87.62742988 45.30436121 66.41053326 38.20707285 45.18212891 31.13891602 C39.93812103 29.39285565 34.69505164 27.64399479 29.45221519 25.89442062 C25.35020798 24.52588247 21.24772724 23.15876848 17.14509964 21.79209137 C15.20813995 21.14665887 13.27132601 20.5007888 11.33466721 19.85445404 C8.65881449 18.96165538 5.98232743 18.07078475 3.30566406 17.18041992 C2.52562515 16.91973221 1.74558624 16.65904449 0.94190979 16.39045715 C-11.59818269 12.16505176 -11.59818269 12.16505176 -24.45214844 14.15893555 Z " fill="#F3F6F7" transform="translate(528.37548828125,241.670166015625)"/>
<path d="M0 0 C0.66 0.33 1.32 0.66 2 1 C1.401875 1.53625 0.80375 2.0725 0.1875 2.625 C-2.16422613 4.91382298 -2.16422613 4.91382298 -3.3125 8.0625 C-5.55701121 11.9696121 -7.7877044 12.64604784 -12 14 C-12.99 14 -13.98 14 -15 14 C-10.18808428 9.07559794 -5.29012124 4.40843437 0 0 Z " fill="#DF2E38" transform="translate(639,379)"/>
<path d="M0 0 C4.55686954 2.91805606 8.69775296 6.11550081 12.8125 9.625 C13.39708984 10.11484375 13.98167969 10.6046875 14.58398438 11.109375 C18.87415902 14.74831803 18.87415902 14.74831803 20 17 C16.29534445 15.34359151 13.23513465 13.05943882 10 10.625 C8.453125 9.46871094 8.453125 9.46871094 6.875 8.2890625 C4.38397601 6.30572003 2.10922654 4.38302037 0 2 C0 1.34 0 0.68 0 0 Z " fill="#DB2F39" transform="translate(409,454)"/>
<path d="M0 0 C0.66 0.33 1.32 0.66 2 1 C1.0479279 2.00596297 0.08812654 3.00461563 -0.875 4 C-1.40867187 4.556875 -1.94234375 5.11375 -2.4921875 5.6875 C-4 7 -4 7 -6 7 C-6.0825 7.61875 -6.165 8.2375 -6.25 8.875 C-7 11 -7 11 -8.9375 12.3125 C-9.9584375 12.6528125 -9.9584375 12.6528125 -11 13 C-11.66 12.67 -12.32 12.34 -13 12 C-8.84792208 7.7373638 -4.63678779 3.73204871 0 0 Z " fill="#DF2D36" transform="translate(561,448)"/>
<path d="M0 0 C0.66 0 1.32 0 2 0 C2.6875 1.625 2.6875 1.625 3 4 C1.5625 7.25 1.5625 7.25 0 10 C-0.66 10 -1.32 10 -2 10 C-1.34 6.7 -0.68 3.4 0 0 Z " fill="#222529" transform="translate(726,526)"/>
<path d="M0 0 C0.33 0.99 0.66 1.98 1 3 C-0.40445835 5.2636564 -2.1967913 7.0208685 -4 9 C-4.66 8.67 -5.32 8.34 -6 8 C-4.02 5.36 -2.04 2.72 0 0 Z " fill="#203057" transform="translate(564,540)"/>
<path d="M0 0 C0.33 1.32 0.66 2.64 1 4 C0.34 4 -0.32 4 -1 4 C-1.12375 4.639375 -1.2475 5.27875 -1.375 5.9375 C-1.58125 6.618125 -1.7875 7.29875 -2 8 C-2.99 8.495 -2.99 8.495 -4 9 C-3.46930939 5.17902761 -2.50298434 2.93828597 0 0 Z " fill="#203258" transform="translate(593,499)"/>
<path d="M0 0 C0.33 0 0.66 0 1 0 C1.36923077 5.53846154 1.36923077 5.53846154 -0.5 7.875 C-1.2425 8.431875 -1.2425 8.431875 -2 9 C-2.33 8.34 -2.66 7.68 -3 7 C-2.06421005 4.64018187 -1.06652192 2.30368736 0 0 Z " fill="#DEE3E6" transform="translate(698,561)"/>
<path d="M0 0 C0.598125 0.350625 1.19625 0.70125 1.8125 1.0625 C1.19375 1.35125 0.575 1.64 -0.0625 1.9375 C-2.32075765 2.99970042 -2.32075765 2.99970042 -4.1875 5.0625 C-4.5175 3.4125 -4.8475 1.7625 -5.1875 0.0625 C-2.1875 -0.9375 -2.1875 -0.9375 0 0 Z " fill="#223F61" transform="translate(302.1875,325.9375)"/>
</svg>
